<svg xmlns="http://www.w3.org/2000/svg" version="1.1" xmlns:xlink="http://www.w3.org/1999/xlink" xmlns:svgjs="http://svgjs.dev/svgjs" width="128" height="128" viewBox="0 0 128 128"><g transform="matrix(0.8046875,0,0,0.8046875,12.760752631578946,27.60355805107558)"><svg viewBox="0 0 95 67" data-background-color="#424146" preserveAspectRatio="xMidYMid meet" height="90" width="128" xmlns="http://www.w3.org/2000/svg" xmlns:xlink="http://www.w3.org/1999/xlink"><g id="tight-bounds" transform="matrix(1,0,0,1,-0.24049999999999727,0.17161662933935418)"><svg viewBox="0 0 95.48099999999998 66.65676674132128" height="66.65676674132128" width="95.48099999999998"><g><svg viewBox="0 0 95.48099999999998 66.65676674132128" height="66.65676674132128" width="95.48099999999998"><g><svg viewBox="0 0 95.48099999999998 66.65676674132128" height="66.65676674132128" width="95.48099999999998"><g id="textblocktransform"><svg viewBox="0 0 95.48099999999998 66.65676674132128" height="66.65676674132128" width="95.48099999999998" id="textblock"><g><svg viewBox="0 0 95.48099999999998 66.65676674132128" height="66.65676674132128" width="95.48099999999998"><g><svg viewBox="0 0 95.48099999999998 66.65676674132128" height="66.65676674132128" width="95.48099999999998"><g><svg xmlns:xl="http://www.w3.org/1999/xlink" xmlns:dc="http://purl.org/dc/elements/1.1/" xmlns="http://www.w3.org/2000/svg" xmlns:xlink="http://www.w3.org/1999/xlink" version="1.1" x="0" y="0" viewBox="-313.57518031602507 367.575 87.16322639151218 60.85000000000008" enable-background="new -320 350 100 100" xml:space="preserve" height="66.65676674132128" width="95.48099999999998" class="icon-icon-0" data-fill-palette-color="accent" id="icon-0"><path d="M-226.743 381.392c-2.018-5.242-11.852-4.894-20.469-3.466-5.58-6.339-13.745-10.351-22.834-10.351-16.775 0-30.425 13.648-30.425 30.425 0 0.133 0.008 0.264 0.01 0.396-7.334 4.705-14.788 10.992-12.783 16.208 1.265 3.291 5.614 4.378 10.812 4.378 3.048 0 6.377-0.382 9.556-0.905 5.58 6.338 13.744 10.348 22.831 10.348 16.778 0 30.425-13.649 30.425-30.425 0-0.112-0.007-0.222-0.008-0.333C-232.263 392.956-224.729 386.635-226.743 381.392zM-270.046 373.107c13.123 0 23.9 10.214 24.822 23.108-2.445 1.428-5.076 2.835-7.854 4.205-1.704-2.767-4.751-4.617-8.24-4.617-5.346 0-9.681 4.332-9.681 9.681 0 0.814 0.112 1.601 0.301 2.356-6.638 2.365-13.101 4.212-18.989 5.426-3.287-4.219-5.251-9.516-5.251-15.266C-294.939 384.275-283.773 373.107-270.046 373.107zM-309.371 413.116c-0.468-1.219 1.792-4.876 9.334-10.025 0.689 4.072 2.19 7.869 4.331 11.224C-304.768 415.539-308.903 414.335-309.371 413.116zM-270.046 422.894c-6.234 0-11.936-2.309-16.308-6.109 5.528-1.267 11.461-3.022 17.521-5.202 1.775 2.184 4.48 3.581 7.514 3.581 5.347 0 9.681-4.335 9.681-9.68 0-0.377-0.027-0.748-0.069-1.113 2.214-1.082 4.337-2.189 6.36-3.312C-246.861 413.346-257.358 422.894-270.046 422.894zM-240.045 392.969c-0.684-4.091-2.187-7.907-4.334-11.275 9.126-1.245 13.292-0.036 13.764 1.187C-230.146 384.104-232.43 387.789-240.045 392.969z" fill="#7530ff" data-fill-palette-color="accent"></path></svg></g></svg></g></svg></g></svg></g></svg></g></svg></g><defs></defs></svg><rect width="95.48099999999998" height="66.65676674132128" fill="none" stroke="none" visibility="hidden"></rect></g></svg></g></svg>