<svg xmlns="http://www.w3.org/2000/svg" version="1.1" xmlns:xlink="http://www.w3.org/1999/xlink" xmlns:svgjs="http://svgjs.dev/svgjs" width="2000" height="368" viewBox="0 0 2000 368"><g transform="matrix(1,0,0,1,-1.2121212121210192,0.9258423627088632)"><svg viewBox="0 0 396 73" data-background-color="#424146" preserveAspectRatio="xMidYMid meet" height="368" width="2000" xmlns="http://www.w3.org/2000/svg" xmlns:xlink="http://www.w3.org/1999/xlink"><g id="tight-bounds" transform="matrix(1,0,0,1,0.23999999999995225,-0.18365894695040197)"><svg viewBox="0 0 395.52 73.36731789390078" height="73.36731789390078" width="395.52"><g><svg viewBox="0 0 532.5867227169023 98.79262588906188" height="73.36731789390078" width="395.52"><g transform="matrix(1,0,0,1,137.0667227169023,21.688848790495708)"><svg viewBox="0 0 395.52 55.414928308070465" height="55.414928308070465" width="395.52"><g id="textblocktransform"><svg viewBox="0 0 395.52 55.414928308070465" height="55.414928308070465" width="395.52" id="textblock"><g><svg viewBox="0 0 395.52 55.414928308070465" height="55.414928308070465" width="395.52"><g transform="matrix(1,0,0,1,0,0)"><svg width="395.52" viewBox="2.15 -33.7 244.07999999999998 34.2" height="55.414928308070465" data-palette-color="#ffffff"><path d="M12.9 0.5L12.9 0.5Q6.65 0.5 2.85-1.1L2.85-1.1 2.85-5.9Q5-5.1 7.48-4.6 9.95-4.1 12.4-4.1L12.4-4.1Q16.25-4.1 18.18-5 20.1-5.9 20.1-8.6L20.1-8.6Q20.1-10.25 19.3-11.25 18.5-12.25 16.65-12.98 14.8-13.7 11.55-14.5L11.55-14.5Q6.35-15.85 4.25-17.93 2.15-20 2.15-23.65L2.15-23.65Q2.15-27.9 5.25-30.3 8.35-32.7 14.5-32.7L14.5-32.7Q17.3-32.7 19.78-32.3 22.25-31.9 23.65-31.4L23.65-31.4 23.65-26.6Q19.85-28.05 15.25-28.05L15.25-28.05Q11.65-28.05 9.65-27.1 7.65-26.15 7.65-23.65L7.65-23.65Q7.65-22.2 8.35-21.3 9.05-20.4 10.78-19.75 12.5-19.1 15.55-18.3L15.55-18.3Q19.5-17.3 21.68-15.93 23.85-14.55 24.73-12.73 25.6-10.9 25.6-8.6L25.6-8.6Q25.6-4.35 22.45-1.93 19.3 0.5 12.9 0.5ZM41.4 0L35.95 0 28.45-32.2 33.8-32.2 39.25-8.05 45.35-28.3 45.35-32.2 49.8-32.2 56.65-8.05 62.2-32.2 67.5-32.2 60.05 0 54.7 0 48.25-22.55 41.4 0ZM89.79 0L84.34 0 84.34-32.2 98.69-32.2Q102.39-32.2 104.79-30.8 107.19-29.4 108.34-26.98 109.49-24.55 109.49-21.45L109.49-21.45Q109.49-16.65 106.52-13.75 103.54-10.85 98.49-10.85L98.49-10.85 89.79-10.85 89.79 0ZM89.79-27.95L89.79-15.15 97.49-15.15Q100.74-15.15 102.39-16.85 104.04-18.55 104.04-21.45L104.04-21.45Q104.04-24.55 102.47-26.25 100.89-27.95 97.74-27.95L97.74-27.95 89.79-27.95ZM119.74 0.5L119.74 0.5Q116.84 0.5 115.34-0.93 113.84-2.35 113.84-5.65L113.84-5.65 113.84-33.7 119.29-33.7 119.29-6.15Q119.29-4.75 119.79-4.25 120.29-3.75 121.29-3.75L121.29-3.75Q122.49-3.75 123.59-4.05L123.59-4.05 123.59-0.1Q122.64 0.25 121.77 0.38 120.89 0.5 119.74 0.5ZM135.24 0.5L135.24 0.5Q132.99 0.5 131.06-0.3 129.14-1.1 127.99-2.73 126.84-4.35 126.84-6.75L126.84-6.75Q126.84-10.15 129.16-12.23 131.49-14.3 136.34-14.3L136.34-14.3 143.94-14.3 143.94-15.35Q143.94-17.05 143.41-18.05 142.89-19.05 141.51-19.5 140.14-19.95 137.49-19.95L137.49-19.95Q133.29-19.95 129.64-18.7L129.64-18.7 129.64-22.75Q131.24-23.4 133.54-23.8 135.84-24.2 138.49-24.2L138.49-24.2Q143.69-24.2 146.41-22.1 149.14-20 149.14-15.25L149.14-15.25 149.14 0 144.49 0 144.14-2.4Q142.69-1 140.56-0.25 138.44 0.5 135.24 0.5ZM136.69-3.4L136.69-3.4Q139.14-3.4 140.96-4.23 142.79-5.05 143.94-6.45L143.94-6.45 143.94-10.6 136.44-10.6Q134.04-10.6 132.96-9.68 131.89-8.75 131.89-6.85L131.89-6.85Q131.89-5 133.14-4.2 134.39-3.4 136.69-3.4ZM160.64 0L155.19 0 155.19-23.7 160.19-23.7 160.44-21.2Q162.04-22.45 164.26-23.33 166.49-24.2 169.19-24.2L169.19-24.2Q173.79-24.2 175.89-22.05 177.99-19.9 177.99-15.35L177.99-15.35 177.99 0 172.59 0 172.59-15.1Q172.59-17.85 171.46-18.95 170.34-20.05 167.24-20.05L167.24-20.05Q165.39-20.05 163.61-19.3 161.84-18.55 160.64-17.35L160.64-17.35 160.64 0ZM195.58 0.5L195.58 0.5Q189.38 0.5 185.98-2.55 182.58-5.6 182.58-11.9L182.58-11.9Q182.58-17.6 185.48-20.9 188.38-24.2 194.28-24.2L194.28-24.2Q199.68-24.2 202.41-21.38 205.13-18.55 205.13-14.1L205.13-14.1 205.13-9.7 187.78-9.7Q188.18-6.25 190.28-4.95 192.38-3.65 196.68-3.65L196.68-3.65Q198.48-3.65 200.38-4 202.28-4.35 203.68-4.9L203.68-4.9 203.68-0.9Q202.08-0.2 200.01 0.15 197.93 0.5 195.58 0.5ZM187.78-13.25L187.78-13.25 200.33-13.25 200.33-14.9Q200.33-17.35 198.98-18.73 197.63-20.1 194.43-20.1L194.43-20.1Q190.63-20.1 189.21-18.45 187.78-16.8 187.78-13.25ZM219.48 0.5L219.48 0.5Q215.68 0.5 213.81-1.53 211.93-3.55 211.93-7.05L211.93-7.05 211.93-19.45 208.43-19.45 208.43-23.7 211.93-23.7 211.93-29.15 217.33-30.8 217.33-23.7 223.63-23.7 223.28-19.45 217.33-19.45 217.33-7.35Q217.33-5.3 218.28-4.48 219.23-3.65 221.38-3.65L221.38-3.65Q222.73-3.65 224.23-4.15L224.23-4.15 224.23-0.3Q222.28 0.5 219.48 0.5ZM236.28 0.5L236.28 0.5Q233.83 0.5 231.6 0.15 229.38-0.2 227.93-0.7L227.93-0.7 227.93-5.3Q229.63-4.65 231.68-4.3 233.73-3.95 235.58-3.95L235.58-3.95Q238.38-3.95 239.58-4.45 240.78-4.95 240.78-6.4L240.78-6.4Q240.78-7.45 240.05-8.05 239.33-8.65 237.9-9.15 236.48-9.65 234.28-10.35L234.28-10.35Q232.18-11.05 230.63-11.88 229.08-12.7 228.23-14 227.38-15.3 227.38-17.4L227.38-17.4Q227.38-20.65 229.73-22.43 232.08-24.2 237.28-24.2L237.28-24.2Q239.33-24.2 241.18-23.9 243.03-23.6 244.33-23.15L244.33-23.15 244.33-18.6Q242.93-19.15 241.25-19.45 239.58-19.75 238.13-19.75L238.13-19.75Q235.53-19.75 234.2-19.3 232.88-18.85 232.88-17.5L232.88-17.5Q232.88-16.1 234.25-15.53 235.63-14.95 238.68-13.95L238.68-13.95Q241.48-13.1 243.13-12.15 244.78-11.2 245.5-9.88 246.23-8.55 246.23-6.45L246.23-6.45Q246.23-2.95 243.68-1.23 241.13 0.5 236.28 0.5Z" opacity="1" transform="matrix(1,0,0,1,0,0)" fill="#ffffff" class="wordmark-text-0" data-fill-palette-color="primary" id="text-0"></path></svg></g></svg></g></svg></g></svg></g><g><svg viewBox="0 0 123.98458810164625 98.79262588906188" height="98.79262588906188" width="123.98458810164625"><g><svg xmlns="http://www.w3.org/2000/svg" xmlns:xlink="http://www.w3.org/1999/xlink" version="1.1" x="0" y="0" viewBox="0.49431894740168425 1.774 99.01058931349014 78.89300000000001" enable-background="new 0 0 100 100" xml:space="preserve" height="98.79262588906188" width="123.98458810164625" class="icon-icon-0" data-fill-palette-color="accent" id="icon-0"><g fill="#7530ff" data-fill-palette-color="accent"><path d="M99.33 43.379c-0.514-1.312-2.234-2.356-4.973-3.023-2.207-0.535-4.994-0.807-8.285-0.807-0.826 0-1.693 0.018-2.576 0.051-4.041 0.158-8.621 0.665-13.615 1.509-0.051 0.009-0.104 0.018-0.158 0.026 0.045 0.056 0.086 0.112 0.129 0.168 0.158 0.199 0.312 0.4 0.463 0.604 0.07 0.094 0.139 0.188 0.207 0.281 0.146 0.205 0.289 0.41 0.43 0.617 0.057 0.082 0.113 0.164 0.168 0.246 0.189 0.289 0.375 0.58 0.553 0.873 0.025 0.043 0.049 0.084 0.074 0.127 0.152 0.256 0.301 0.514 0.443 0.773 0.02 0.037 0.043 0.074 0.062 0.111 1.045 0.143 1.943 0.361 2.678 0.652 2.434 0.963 2.738 2.559 2.703 3.422-0.055 1.312-0.916 2.76-2.561 4.305l0.002 0.014-0.463 0.404 0 0c0 0.002 0 0.002 0 0.002-0.197 0.172-0.404 0.348-0.621 0.521-0.002 0.002-0.004 0.004-0.008 0.008-0.555 0.449-1.176 0.904-1.846 1.365-1.18 0.807-2.525 1.623-4.043 2.447-0.387 0.209-0.783 0.42-1.186 0.627-2.824 1.455-6.033 2.855-9.562 4.168-3.561 1.324-7.195 2.467-10.824 3.404-0.519 0.135-1.037 0.264-1.555 0.391-3.962 0.959-7.662 1.611-10.997 1.939-0.355 0.033-0.704 0.062-1.048 0.09-0.113 0.01-0.225 0.016-0.336 0.025-0.227 0.016-0.453 0.031-0.675 0.043-0.133 0.008-0.264 0.014-0.395 0.021-0.197 0.008-0.392 0.016-0.584 0.023-0.134 0.004-0.268 0.01-0.399 0.012-0.201 0.006-0.396 0.008-0.591 0.008-0.091 0.002-0.187 0.006-0.277 0.006l0 0c-0.023 0-0.046 0-0.068 0-0.008-0.002-0.017-0.002-0.024-0.002-0.232 0-0.459-0.004-0.684-0.01-0.062-0.002-0.123-0.004-0.184-0.004-0.175-0.006-0.347-0.014-0.517-0.021-0.064-0.004-0.128-0.006-0.191-0.01-0.22-0.012-0.438-0.027-0.647-0.045l-0.627-0.053-0.005-0.012c-0.296-0.033-0.58-0.072-0.844-0.117-2.327-0.387-3.847-1.203-4.517-2.428-0.482-0.879-0.736-2.35 0.792-4.365 0.497-0.654 1.163-1.342 1.986-2.049-0.003-0.035-0.005-0.072-0.009-0.107-0.007-0.08-0.014-0.16-0.021-0.24-0.014-0.164-0.026-0.326-0.037-0.49-0.006-0.086-0.011-0.172-0.016-0.258-0.009-0.166-0.016-0.332-0.022-0.5-0.003-0.076-0.006-0.15-0.009-0.227-0.007-0.24-0.011-0.48-0.011-0.719 0-0.312 0.006-0.625 0.018-0.939 0.003-0.111 0.013-0.223 0.018-0.334 0.009-0.193 0.017-0.387 0.031-0.58-4.503 2.084-8.529 4.227-11.969 6.367C8.398 64 5.5 66.223 3.494 68.299c-2.079 2.148-3.112 4.07-2.99 5.557 0.126 1.533 1.541 2.715 4.205 3.518 2.304 0.693 5.391 1.045 9.177 1.045 1.399 0 2.902-0.049 4.468-0.146 4.961-0.309 10.552-1.086 16.616-2.311 1.632-0.33 3.277-0.688 4.888-1.062 8.33-1.936 17.043-4.598 25.2-7.701 2.562-0.977 5.064-1.992 7.438-3.02 5.045-2.186 9.582-4.455 13.486-6.744 5.131-3.01 9.041-5.998 11.309-8.643C98.594 47.271 100.006 45.1 99.33 43.379z" fill="#7530ff" data-fill-palette-color="accent"></path><path d="M69.658 67.736c-0.553 0.225-1.113 0.447-1.674 0.668-0.145 0.057-0.289 0.115-0.436 0.172-0.568 0.223-1.139 0.443-1.713 0.662-0.518 0.197-1.033 0.391-1.553 0.584-7.795 2.889-16.032 5.369-23.929 7.205-0.78 0.182-1.568 0.359-2.358 0.531 3.542 2.041 7.536 3.109 11.687 3.109 9.158 0 17.398-5.311 21.242-13.451-0.414 0.172-0.83 0.342-1.25 0.514C69.67 67.732 69.662 67.734 69.658 67.736z" fill="#7530ff" data-fill-palette-color="accent"></path><path d="M28.166 66.611L28.166 66.611c0.006 0 0.013 0 0.019 0 0.028 0.002 0.058 0.002 0.086 0.004 0.189 0.01 0.383 0.018 0.581 0.023 0.059 0.002 0.121 0.002 0.181 0.004 0.171 0.002 0.343 0.006 0.52 0.006 0.071 0 0.143 0 0.215 0 0.17-0.002 0.342-0.002 0.517-0.006 0.078-0.002 0.157-0.004 0.235-0.006 0.173-0.004 0.349-0.01 0.526-0.018 0.084-0.002 0.167-0.006 0.252-0.01 0.178-0.008 0.358-0.018 0.54-0.029 0.087-0.004 0.173-0.008 0.261-0.014 0.19-0.012 0.385-0.027 0.581-0.041 0.08-0.008 0.159-0.012 0.239-0.018 0.276-0.023 0.554-0.049 0.837-0.076 3.234-0.316 6.833-0.953 10.696-1.889 0.507-0.123 1.015-0.25 1.523-0.381 0.444-0.115 0.889-0.232 1.334-0.355 3.111-0.848 6.219-1.846 9.274-2.982 2.375-0.883 4.596-1.805 6.646-2.756 1.35-0.625 2.627-1.264 3.822-1.91 0.033-0.018 0.064-0.035 0.098-0.055 0.27-0.148 0.537-0.295 0.797-0.441 0.102-0.059 0.199-0.115 0.297-0.174 0.189-0.107 0.377-0.215 0.559-0.322 0.109-0.066 0.215-0.131 0.322-0.197 0.164-0.098 0.328-0.197 0.486-0.297 0.109-0.068 0.215-0.135 0.32-0.203 0.15-0.096 0.301-0.191 0.445-0.287 0.105-0.068 0.207-0.137 0.309-0.205 0.141-0.094 0.277-0.188 0.412-0.281 0.098-0.068 0.193-0.137 0.289-0.203 0.133-0.096 0.26-0.189 0.389-0.283 0.088-0.066 0.178-0.131 0.262-0.195 0.129-0.098 0.252-0.195 0.373-0.291 0.076-0.062 0.156-0.123 0.23-0.184 0.02-0.016 0.041-0.033 0.061-0.049v-0.002c-0.426-2.102-1.139-4.129-2.119-6.035-0.869-1.688-1.939-3.268-3.193-4.703-0.18-0.205-0.363-0.408-0.549-0.607-4.428-4.735-10.682-7.451-17.158-7.451-5.665 0-11.135 2.045-15.404 5.758-4.228 3.677-7.007 8.735-7.826 14.247-0.171 1.15-0.257 2.32-0.257 3.482 0 0.953 0.059 1.918 0.175 2.871C26.646 62.32 27.25 64.523 28.166 66.611zM62.281 47.896c0.66-0.859 1.891-1.02 2.748-0.357 0.857 0.66 1.018 1.889 0.357 2.746s-1.891 1.018-2.748 0.357S61.621 48.754 62.281 47.896zM58.342 41.271c0.533-0.691 1.525-0.821 2.219-0.288 0.691 0.532 0.82 1.525 0.287 2.218-0.531 0.691-1.525 0.82-2.217 0.287C57.939 42.957 57.809 41.963 58.342 41.271zM53.945 47.844c0.801-1.039 2.291-1.232 3.33-0.432 1.039 0.799 1.232 2.291 0.432 3.328-0.799 1.041-2.289 1.234-3.328 0.434C53.34 50.375 53.145 48.883 53.945 47.844z" fill="#7530ff" data-fill-palette-color="accent"></path><polygon points="61.254,26.244 68.311,21.117 75.367,26.244 72.672,17.948 79.729,12.821 71.006,12.821 68.311,4.525    65.615,12.821 56.893,12.821 63.949,17.948  " fill="#7530ff" data-fill-palette-color="accent"></polygon><polygon points="5.318,46.805 10.754,42.854 16.191,46.805 14.115,40.412 19.551,36.462 12.832,36.462 10.754,30.071 8.678,36.462    1.958,36.462 7.395,40.412  " fill="#7530ff" data-fill-palette-color="accent"></polygon><polygon points="40.794,11.351 43.907,9.09 47.018,11.351 45.83,7.693 48.942,5.432 45.095,5.432 43.907,1.774 42.717,5.432    38.871,5.432 41.983,7.693  " fill="#7530ff" data-fill-palette-color="accent"></polygon></g></svg></g></svg></g></svg></g><defs></defs></svg><rect width="395.52" height="73.36731789390078" fill="none" stroke="none" visibility="hidden"></rect></g></svg></g></svg>