<svg xmlns="http://www.w3.org/2000/svg" version="1.1" xmlns:xlink="http://www.w3.org/1999/xlink" xmlns:svgjs="http://svgjs.dev/svgjs" width="2000" height="348" viewBox="0 0 2000 348"><g transform="matrix(1,0,0,1,-1.2121212121212466,0.3474892109445875)"><svg viewBox="0 0 396 69" data-background-color="#424146" preserveAspectRatio="xMidYMid meet" height="348" width="2000" xmlns="http://www.w3.org/2000/svg" xmlns:xlink="http://www.w3.org/1999/xlink"><g id="tight-bounds" transform="matrix(1,0,0,1,0.2400000000000091,-0.0688987228597)"><svg viewBox="0 0 395.52 69.13779744571939" height="69.13779744571939" width="395.52"><g><svg viewBox="0 0 542.0297425587073 94.74803436129483" height="69.13779744571939" width="395.52"><g transform="matrix(1,0,0,1,146.50974255870727,24.521138656456674)"><svg viewBox="0 0 395.52 45.70575704838148" height="45.70575704838148" width="395.52"><g id="textblocktransform"><svg viewBox="0 0 395.52 45.70575704838148" height="45.70575704838148" width="395.52" id="textblock"><g><svg viewBox="0 0 395.52 45.70575704838148" height="45.70575704838148" width="395.52"><g transform="matrix(1,0,0,1,0,0)"><svg width="395.52" viewBox="1.55 -32.7 287.28 33.2" height="45.70575704838148" data-palette-color="#ffffff"><path d="M12.8 0.5L12.8 0.5Q9.6 0.5 6.83 0.03 4.05-0.45 2.05-1.35L2.05-1.35 2.05-8.2Q4.25-7.25 6.93-6.65 9.6-6.05 12-6.05L12-6.05Q15-6.05 16.48-6.6 17.95-7.15 17.95-9L17.95-9Q17.95-10.25 17.23-11 16.5-11.75 14.88-12.33 13.25-12.9 10.45-13.7L10.45-13.7Q7.15-14.7 5.2-15.93 3.25-17.15 2.4-18.9 1.55-20.65 1.55-23.2L1.55-23.2Q1.55-27.8 4.85-30.25 8.15-32.7 14.6-32.7L14.6-32.7Q17.4-32.7 20.05-32.27 22.7-31.85 24.35-31.3L24.35-31.3 24.35-24.4Q22.2-25.25 20.03-25.65 17.85-26.05 15.8-26.05L15.8-26.05Q13.1-26.05 11.43-25.55 9.75-25.05 9.75-23.25L9.75-23.25Q9.75-22.2 10.35-21.58 10.95-20.95 12.43-20.45 13.9-19.95 16.45-19.25L16.45-19.25Q20.4-18.2 22.5-16.73 24.6-15.25 25.4-13.33 26.2-11.4 26.2-9L26.2-9Q26.2-4.75 22.9-2.13 19.6 0.5 12.8 0.5ZM42.25 0L34.8 0 27.3-32.2 35.2-32.2 39.45-12.8 43.85-27.65 43.85-32.2 50.45-32.2 56-12.75 60.45-32.2 68.35-32.2 60.9 0 53.45 0 48.05-18.6 42.25 0ZM91.24 0L83.19 0 83.19-32.2 99.04-32.2Q102.89-32.2 105.39-30.68 107.89-29.15 109.12-26.55 110.34-23.95 110.34-20.7L110.34-20.7Q110.34-17.4 108.94-14.85 107.54-12.3 104.97-10.88 102.39-9.45 98.84-9.45L98.84-9.45 91.24-9.45 91.24 0ZM91.24-26L91.24-15.65 97.04-15.65Q99.59-15.65 100.87-17.05 102.14-18.45 102.14-20.75L102.14-20.75Q102.14-23.25 100.97-24.63 99.79-26 97.29-26L97.29-26 91.24-26ZM136.74 0L113.49 0 113.49-32.2 121.54-32.2 121.54-6.2 136.74-6.2 136.74 0ZM147.24 0L138.84 0 151.14-32.2 159.84-32.2 172.14 0 163.74 0 160.84-7.3 150.09-7.3 147.24 0ZM155.44-24.45L151.19-13.25 159.74-13.25 155.44-24.45ZM184.29 0L176.24 0 176.24-32.2 183.14-32.2 196.84-12.95 196.84-32.2 204.94-32.2 204.94 0 197.99 0 184.29-19.2 184.29 0ZM233.78 0L210.03 0 210.03-32.2 233.78-32.2 233.78-26 218.08-26 218.08-19.25 231.93-19.25 231.93-12.95 218.08-12.95 218.08-6.2 233.78-6.2 233.78 0ZM253.13 0L245.08 0 245.08-26 235.63-26 235.63-32.2 262.58-32.2 262.58-26 253.13-26 253.13 0ZM275.43 0.5L275.43 0.5Q272.23 0.5 269.45 0.03 266.68-0.45 264.68-1.35L264.68-1.35 264.68-8.2Q266.88-7.25 269.55-6.65 272.23-6.05 274.63-6.05L274.63-6.05Q277.63-6.05 279.1-6.6 280.58-7.15 280.58-9L280.58-9Q280.58-10.25 279.85-11 279.13-11.75 277.5-12.33 275.88-12.9 273.08-13.7L273.08-13.7Q269.78-14.7 267.83-15.93 265.88-17.15 265.03-18.9 264.18-20.65 264.18-23.2L264.18-23.2Q264.18-27.8 267.48-30.25 270.78-32.7 277.23-32.7L277.23-32.7Q280.03-32.7 282.68-32.27 285.33-31.85 286.98-31.3L286.98-31.3 286.98-24.4Q284.83-25.25 282.65-25.65 280.48-26.05 278.43-26.05L278.43-26.05Q275.73-26.05 274.05-25.55 272.38-25.05 272.38-23.25L272.38-23.25Q272.38-22.2 272.98-21.58 273.58-20.95 275.05-20.45 276.53-19.95 279.08-19.25L279.08-19.25Q283.03-18.2 285.13-16.73 287.23-15.25 288.03-13.33 288.83-11.4 288.83-9L288.83-9Q288.83-4.75 285.53-2.13 282.23 0.5 275.43 0.5Z" opacity="1" transform="matrix(1,0,0,1,0,0)" fill="#ffffff" class="wordmark-text-0" data-fill-palette-color="primary" id="text-0"></path></svg></g></svg></g></svg></g></svg></g><g><svg viewBox="0 0 135.71971025775358 94.74803436129483" height="94.74803436129483" width="135.71971025775358"><g><svg xmlns:xl="http://www.w3.org/1999/xlink" xmlns:dc="http://purl.org/dc/elements/1.1/" xmlns="http://www.w3.org/2000/svg" xmlns:xlink="http://www.w3.org/1999/xlink" version="1.1" x="0" y="0" viewBox="-313.57518031602507 367.575 87.16322639151218 60.85000000000008" enable-background="new -320 350 100 100" xml:space="preserve" height="94.74803436129483" width="135.71971025775358" class="icon-icon-0" data-fill-palette-color="accent" id="icon-0"><path d="M-226.743 381.392c-2.018-5.242-11.852-4.894-20.469-3.466-5.58-6.339-13.745-10.351-22.834-10.351-16.775 0-30.425 13.648-30.425 30.425 0 0.133 0.008 0.264 0.01 0.396-7.334 4.705-14.788 10.992-12.783 16.208 1.265 3.291 5.614 4.378 10.812 4.378 3.048 0 6.377-0.382 9.556-0.905 5.58 6.338 13.744 10.348 22.831 10.348 16.778 0 30.425-13.649 30.425-30.425 0-0.112-0.007-0.222-0.008-0.333C-232.263 392.956-224.729 386.635-226.743 381.392zM-270.046 373.107c13.123 0 23.9 10.214 24.822 23.108-2.445 1.428-5.076 2.835-7.854 4.205-1.704-2.767-4.751-4.617-8.24-4.617-5.346 0-9.681 4.332-9.681 9.681 0 0.814 0.112 1.601 0.301 2.356-6.638 2.365-13.101 4.212-18.989 5.426-3.287-4.219-5.251-9.516-5.251-15.266C-294.939 384.275-283.773 373.107-270.046 373.107zM-309.371 413.116c-0.468-1.219 1.792-4.876 9.334-10.025 0.689 4.072 2.19 7.869 4.331 11.224C-304.768 415.539-308.903 414.335-309.371 413.116zM-270.046 422.894c-6.234 0-11.936-2.309-16.308-6.109 5.528-1.267 11.461-3.022 17.521-5.202 1.775 2.184 4.48 3.581 7.514 3.581 5.347 0 9.681-4.335 9.681-9.68 0-0.377-0.027-0.748-0.069-1.113 2.214-1.082 4.337-2.189 6.36-3.312C-246.861 413.346-257.358 422.894-270.046 422.894zM-240.045 392.969c-0.684-4.091-2.187-7.907-4.334-11.275 9.126-1.245 13.292-0.036 13.764 1.187C-230.146 384.104-232.43 387.789-240.045 392.969z" fill="#7530ff" data-fill-palette-color="accent"></path></svg></g></svg></g></svg></g><defs></defs></svg><rect width="395.52" height="69.13779744571939" fill="none" stroke="none" visibility="hidden"></rect></g></svg></g></svg>